# xmcd CD database file
#
# Track frame offsets:
#	150
#	17115
#	38557
#	52397
#	68062
#	87802
#	104775
#	120422
#	139765
#	163567
#	180560
#	200660
#	223622
#
# Disc length: 3279 seconds
#
# Revision: 0
# Processed by: cddbd v1.5.1PL0 Copyright (c) Steve Scherf et al.
# Submitted via: CDex 1.51
#
DISCID=ba0ccd0d
DTITLE=Rita Reys and Pim Jacobs - Rita Reys and Pim Jacobs Collage
DYEAR=1994
DGENRE=Jazz
TTITLE0=That Old Feeling
TTITLE1=Over the Rainbow
TTITLE2=My Funny Valentine
TTITLE3=Moonlight in Vermont
TTITLE4=Everything Happens to me
TTITLE5=Two Sleepy People
TTITLE6=Here's that Rainy Day
TTITLE7=Too Marvelous for Words
TTITLE8=Fly me to the Moon
TTITLE9=Where or When
TTITLE10=Poor Butterfly
TTITLE11=My Foolish Heart
TTITLE12=Mr. Wonderful
EXTD=YEAR: 1994
EXTT0=
EXTT1=
EXTT2=
EXTT3=
EXTT4=
EXTT5=
EXTT6=
EXTT7=
EXTT8=
EXTT9=
EXTT10=
EXTT11=
EXTT12=
PLAYORDER=
